<?xml version="1.0" encoding="utf-8"?>
<svg viewBox="102.614 74.8679 285.6322 285.6441" width="285.6322" height="285.6441" xmlns="http://www.w3.org/2000/svg">
    <g transform="matrix(0.0363290049135685, 0, 0, -0.0363290049135685, 82.66030883789062, 379.377685546875)" fill="#ffffff" stroke="none" style="">
        <path d="M562 8368 c-9 -9 -12 -310 -12 -1294 0 -705 3 -1289 6 -1298 6 -14 129 -16 1298 -16 992 0 1295 3 1304 12 17 17 17 2579 0 2596 -17 17 -2579 17 -2596 0z m2228 -394 c6 -16 10 -363 10 -919 0 -799 -2 -895 -16 -909 -14 -14 -111 -16 -920 -16 -605 0 -912 3 -925 10 -19 10 -19 31 -19 923 0 697 3 916 12 925 9 9 229 12 930 12 l918 0 10 -26z" style="paint-order: fill; fill-rule: nonzero;"/>
        <path d="M1306 7614 c-3 -8 -6 -260 -6 -559 0 -486 2 -543 16 -549 24 -9 1077 -7 1092 2 10 7 12 126 10 563 l-3 554 -551 3 c-497 2 -552 1 -558 -14z" style="paint-order: fill; fill-rule: nonzero;"/>
        <path d="M3556 8364 c-13 -13 -16 -42 -16 -164 0 -82 4 -160 10 -174 l10 -26 180 0 180 0 0 -375 0 -375 -178 0 c-125 0 -182 -4 -190 -12 -9 -9 -12 -229 -12 -930 l0 -918 -354 0 c-195 0 -361 -3 -370 -6 -14 -5 -16 -32 -16 -190 l0 -184 -190 0 -190 0 0 184 c0 158 -2 185 -16 190 -9 3 -85 6 -169 6 -84 0 -160 -3 -169 -6 -14 -5 -16 -32 -16 -190 l0 -184 185 0 185 0 -2 -182 -3 -183 -180 0 -180 0 -5 180 -5 180 -370 0 -370 0 -5 -370 -5 -370 -185 0 -185 0 -3 180 c-2 128 -6 181 -15 187 -21 13 -331 10 -345 -4 -17 -17 -17 -339 0 -356 8 -8 64 -12 185 -12 l173 0 0 -357 c0 -197 4 -364 8 -371 7 -9 88 -12 373 -10 l364 3 0 180 0 180 -180 5 -180 5 -3 183 -2 182 919 0 c823 0 921 2 935 16 13 13 16 45 16 190 l0 174 185 0 185 0 0 173 c0 121 4 177 12 185 7 7 43 12 91 12 77 0 80 1 106 31 34 42 110 118 144 146 l27 21 0 1021 0 1021 183 -2 182 -3 3 -170 c2 -145 5 -172 19 -182 13 -10 103 -13 369 -13 312 0 353 -2 358 -16 3 -9 6 -94 6 -190 l0 -174 -182 -2 -183 -3 -3 -182 -2 -183 -178 0 c-125 0 -182 -4 -190 -12 -18 -18 -17 -332 2 -347 9 -8 68 -11 187 -9 l174 3 3 183 2 182 185 0 185 0 0 -169 c0 -93 -3 -176 -6 -185 -5 -14 -31 -16 -185 -16 l-179 0 -2 -182 -3 -183 -175 -5 c-96 -3 -181 -9 -187 -13 -14 -9 -19 -152 -5 -161 4 -2 172 -6 372 -7 l365 -2 3 79 c2 60 7 82 19 92 12 8 67 12 190 12 l173 0 0 348 c0 191 -3 357 -6 370 -6 22 -8 22 -190 22 l-184 0 0 185 0 185 180 0 c167 0 180 1 190 19 6 13 10 202 10 546 0 344 -4 533 -10 546 -10 18 -23 19 -179 19 -128 0 -171 -3 -180 -13 -6 -8 -12 -80 -13 -188 l-3 -174 -180 0 -180 0 -3 174 c-1 108 -7 180 -13 188 -9 10 -52 13 -179 13 -127 0 -170 3 -179 13 -6 8 -12 79 -13 183 l-3 169 -182 3 -183 2 0 175 c0 144 -3 176 -16 189 -23 24 -325 24 -348 0z m-398 -3366 c8 -8 12 -64 12 -185 l0 -173 -180 0 c-161 0 -180 2 -187 18 -7 14 -9 183 -4 320 l1 32 173 0 c121 0 177 -4 185 -12z" style="paint-order: fill; fill-rule: nonzero;"/>
        <path d="M5808 8369 c-17 -9 -18 -82 -18 -1298 0 -1073 2 -1290 14 -1300 10 -8 359 -10 1307 -9 l1294 3 3 1299 c2 1033 0 1301 -10 1308 -20 12 -2569 9 -2590 -3z m2220 -1298 c2 -733 0 -926 -10 -933 -15 -9 -1808 -11 -1832 -2 -14 6 -16 97 -16 928 0 508 3 926 7 929 3 4 421 6 927 5 l921 -3 3 -924z" style="paint-order: fill; fill-rule: nonzero;"/>
        <path d="M6540 7610 c-7 -13 -10 -192 -8 -555 3 -463 5 -537 18 -545 18 -12 1079 -13 1097 -2 10 6 13 134 13 555 1 301 -2 552 -5 557 -4 6 -206 10 -555 10 -537 0 -550 0 -560 -20z" style="paint-order: fill; fill-rule: nonzero;"/>
        <path d="M562 5378 c-17 -17 -17 -339 0 -356 13 -13 311 -18 342 -6 14 5 16 31 16 184 0 153 -2 179 -16 184 -31 12 -329 7 -342 -6z" style="paint-order: fill; fill-rule: nonzero;"/>
        <path d="M5427 5383 c-4 -3 -7 -89 -7 -189 l0 -184 183 -2 182 -3 0 -180 0 -180 -182 -3 -183 -2 0 -375 0 -375 185 0 185 0 2 -182 3 -183 368 -3 367 -2 2 67 c1 38 2 117 2 176 1 84 4 110 16 117 9 6 163 10 373 10 l357 0 0 375 0 375 -175 0 -175 0 -10 -24 c-5 -14 -9 -93 -9 -176 0 -102 -4 -156 -12 -166 -9 -12 -72 -14 -370 -14 l-359 0 -1 163 c-1 189 -1 200 15 209 6 4 86 8 178 8 l167 0 7 56 c3 30 3 104 -1 164 -10 166 -51 150 381 150 l364 0 -2 188 -3 187 -921 3 c-506 1 -924 -1 -927 -5z m743 -1289 c0 -95 -4 -174 -10 -185 -10 -18 -23 -19 -190 -19 l-180 0 0 173 c0 121 4 177 12 185 8 8 65 12 190 12 l178 0 0 -166z" style="paint-order: fill; fill-rule: nonzero;"/>
        <path d="M8047 5378 c-14 -11 -17 -38 -19 -188 l-3 -175 -370 -5 -370 -5 0 -180 0 -180 560 0 560 0 3 364 c2 285 -1 366 -10 373 -22 13 -332 10 -351 -4z" style="paint-order: fill; fill-rule: nonzero;"/>
        <path d="M4465 5036 c-22 -7 -58 -23 -80 -36 -22 -12 -60 -34 -85 -48 -107 -60 -120 -88 -120 -251 0 -138 -2 -142 -95 -192 -188 -101 -205 -125 -205 -296 0 -61 3 -125 7 -144 9 -48 76 -106 187 -164 84 -43 105 -50 154 -50 51 1 71 8 176 64 l120 64 130 -68 c126 -65 132 -67 184 -61 63 8 204 79 265 134 l27 26 0 191 c0 138 -3 196 -12 207 -12 15 -111 76 -200 122 -20 11 -39 29 -42 40 -3 12 -6 72 -6 134 0 160 -12 182 -135 253 -141 82 -200 98 -270 75z m195 -146 c55 -32 91 -59 98 -75 17 -36 16 -171 -1 -178 -7 -3 -51 14 -97 36 -107 53 -167 56 -250 13 -101 -54 -110 -57 -120 -51 -5 3 -10 45 -10 92 0 80 2 87 28 110 15 14 65 45 112 70 103 53 116 52 240 -17z m5 -330 c69 -38 97 -58 101 -75 3 -13 4 -71 2 -128 -2 -87 -6 -109 -22 -126 -31 -34 -190 -121 -221 -121 -15 0 -59 18 -97 40 -39 22 -73 40 -78 40 -4 0 -22 16 -39 36 l-32 35 3 122 3 121 93 52 c50 29 100 55 110 58 37 10 86 -5 177 -54z m-497 -142 c7 -7 12 -41 12 -82 0 -39 5 -88 11 -108 11 -40 60 -95 106 -118 71 -37 102 -60 97 -75 -9 -21 -133 -85 -167 -85 -15 0 -51 13 -80 29 -29 16 -71 39 -95 51 -65 34 -72 49 -72 168 0 126 8 144 93 194 70 41 78 43 95 26z m791 -18 c76 -41 88 -52 101 -84 11 -29 14 -186 4 -223 -10 -35 -192 -143 -241 -143 -37 1 -168 71 -168 90 0 8 29 31 64 51 122 72 151 117 151 234 0 78 6 105 22 105 6 0 36 -14 67 -30z" style="paint-order: fill; fill-rule: nonzero;"/>
        <path d="M5234 4998 c-5 -7 -7 -89 -4 -183 l5 -170 90 0 90 0 0 180 0 180 -86 3 c-61 2 -89 -1 -95 -10z" style="paint-order: fill; fill-rule: nonzero;"/>
        <path d="M3545 4628 c-3 -7 -6 -175 -7 -373 l-3 -360 -362 -5 c-199 -3 -364 -8 -368 -12 -9 -9 -9 -334 0 -348 4 -6 129 -10 359 -10 260 0 355 -3 364 -12 9 -9 12 -103 12 -363 0 -260 3 -354 12 -363 8 -8 61 -12 174 -12 134 0 165 -3 178 -16 13 -13 16 -43 16 -172 0 -86 -5 -164 -10 -172 -7 -12 -42 -16 -182 -18 -119 -2 -175 -7 -180 -15 -12 -18 -9 -316 2 -338 10 -18 27 -19 555 -19 528 0 545 -1 555 -19 13 -25 13 -321 0 -341 -7 -12 -44 -16 -187 -20 l-178 -5 -5 -365 -5 -365 -363 -5 c-308 -4 -364 -7 -372 -20 -5 -8 -10 -88 -10 -177 0 -150 1 -163 19 -173 26 -13 1049 -14 1085 0 l26 9 2 363 3 363 169 3 c104 1 175 7 183 13 10 9 13 53 13 181 0 129 3 170 13 174 7 2 88 6 180 7 137 2 170 5 177 17 5 8 10 93 10 187 l0 173 553 2 552 3 9 106 c5 58 5 140 1 182 l-7 77 -554 0 -554 0 0 -185 0 -185 -179 0 c-140 0 -181 3 -190 14 -8 9 -11 66 -9 182 l3 169 185 5 185 5 5 185 5 185 180 5 180 5 0 180 0 180 -180 5 -180 5 -5 370 c-3 204 -7 371 -8 373 -1 1 -42 2 -91 2 l-89 0 -41 -55 c-23 -30 -66 -73 -96 -95 l-55 -40 -2 -463 -3 -462 -182 -3 -183 -2 0 173 c0 121 -4 177 -12 185 -8 8 -62 12 -178 12 -116 0 -170 4 -178 12 -8 8 -12 61 -12 174 0 134 3 165 16 178 13 13 44 16 184 16 144 0 169 2 174 16 9 25 7 127 -4 144 -8 13 -64 16 -367 20 -351 5 -359 5 -403 28 -57 30 -106 76 -133 127 -21 38 -22 55 -27 403 -4 308 -7 364 -20 372 -23 15 -160 13 -165 -2z m1123 -2035 c2 -146 0 -173 -13 -187 -24 -23 -326 -24 -349 0 -24 23 -23 325 0 349 14 13 41 15 187 13 l172 -3 3 -172z" style="paint-order: fill; fill-rule: nonzero;"/>
        <path d="M7671 4246 c-8 -9 -11 -65 -9 -182 l3 -169 183 -3 182 -2 0 -375 0 -375 -185 0 -186 0 1 308 c0 169 0 337 0 375 l0 67 -187 -2 -188 -3 -3 -372 -2 -373 -180 0 -179 0 -7 35 c-3 20 -4 99 -1 176 6 180 18 170 -204 167 l-163 -3 -8 -33 c-5 -19 -8 -271 -6 -560 l3 -527 373 -3 372 -2 0 375 0 375 190 0 190 0 0 -375 0 -375 -187 -2 -188 -3 -3 -163 c-1 -101 2 -170 8 -182 10 -19 22 -20 190 -20 l180 0 0 185 0 185 185 0 185 0 -2 -182 -3 -183 -180 -5 -180 -5 -3 -181 -2 -181 31 -7 c40 -8 667 -8 697 0 l22 6 0 369 0 369 -190 0 -190 0 0 375 0 375 188 2 187 3 3 364 c2 285 -1 366 -10 373 -7 4 -93 8 -190 8 l-178 0 -2 183 -3 182 -171 3 c-137 2 -173 0 -183 -12z" style="paint-order: fill; fill-rule: nonzero;"/>
        <path d="M557 3133 c-4 -3 -7 -587 -7 -1298 0 -991 3 -1294 12 -1303 15 -15 2542 -18 2582 -2 l26 10 0 1288 c0 988 -3 1291 -12 1300 -9 9 -312 12 -1303 12 -711 0 -1295 -3 -1298 -7z m2227 -379 c15 -14 16 -106 16 -910 0 -536 -4 -904 -10 -919 l-10 -25 -924 0 c-833 0 -924 2 -930 16 -3 9 -6 422 -6 919 0 808 2 905 16 919 14 14 111 16 924 16 816 0 910 -2 924 -16z" style="paint-order: fill; fill-rule: nonzero;"/>
        <path d="M1307 2383 c-4 -3 -7 -253 -7 -554 l0 -549 23 -5 c12 -3 263 -4 557 -3 l535 3 0 555 0 555 -551 3 c-303 1 -554 -1 -557 -5z" style="paint-order: fill; fill-rule: nonzero;"/>
        <path d="M5797 1633 c-4 -3 -7 -82 -7 -173 0 -127 -3 -170 -13 -179 -8 -6 -79 -12 -183 -13 l-169 -3 -6 -180 c-3 -99 -6 -181 -7 -182 -1 -2 -77 -3 -168 -3 -95 0 -174 -4 -185 -10 -18 -10 -19 -23 -19 -181 l0 -169 26 -10 c34 -13 1044 -13 1079 0 l26 10 -2 356 c0 196 3 360 8 365 5 5 87 10 183 11 l175 3 0 170 c0 94 -1 176 -3 183 -3 9 -85 12 -366 12 -200 0 -366 -3 -369 -7z" style="paint-order: fill; fill-rule: nonzero;"/>
        <path d="M6917 1633 c-3 -5 -5 -84 -6 -178 -2 -119 -6 -172 -14 -177 -7 -4 -89 -8 -183 -8 l-171 0 -7 -37 c-10 -62 -7 -293 4 -314 10 -18 25 -19 375 -19 l365 0 0 173 c0 121 4 177 12 185 8 8 65 12 190 12 l178 0 -2 -182 -3 -183 -185 -5 -185 -5 -3 -178 -2 -177 26 -10 c30 -12 1088 -10 1099 2 13 12 5 352 -8 360 -7 4 -87 8 -178 8 -126 0 -169 3 -178 13 -6 8 -12 79 -13 183 l-3 169 -182 3 -183 2 0 185 0 185 -369 0 c-204 0 -372 -3 -374 -7z" style="paint-order: fill; fill-rule: nonzero;"/>
    </g>
</svg>